<svg xmlns="http://www.w3.org/2000/svg" fill-rule="evenodd" viewBox="0 0 100 100">
    <path d="M94.94 61.89v-.06a1.5 1.5 0 0 0 0-.33V30a11 11 0 0 0-18.11-8.4 1.5 1.5 0 0 0 1.94 2.29A8 8 0 0 1 92 30v29.77l-10.22-1.46-5.42-11a1.5 1.5 0 0 0-2.69 0l-5.42 11L56.83 60a10.34 10.34 0 0 0-6.16-2.62A10.34 10.34 0 0 0 44.51 60l-11.43-1.69-5.42-11a1.5 1.5 0 0 0-2.69 0l-5.42 11L9 59.83V30a8 8 0 0 1 13.17-6.11 1.5 1.5 0 0 0 1.94-2.29A11 11 0 0 0 6 30v31.61a1.52 1.52 0 0 0 0 .19 1.49 1.49 0 0 0 .43.83l8.91 8.55-2.03 12.07a1.5 1.5 0 0 0 2.18 1.58l10.84-5.7 10.84 5.7a1.5 1.5 0 0 0 2.18-1.58l-2.09-12.07L46 62.63c.66-.63 2.76-2.27 4.64-2.27s4 1.64 4.63 2.27l8.77 8.55L62 83.25a1.5 1.5 0 0 0 2.18 1.58L75 79.13l10.84 5.7A1.5 1.5 0 0 0 88 83.25l-2-12.08 8.6-8.61a1.5 1.5 0 0 0 .23-.3v-.09a1.48 1.48 0 0 0 .11-.28Zm-60.33 7.69a1.5 1.5 0 0 0-.43 1.33l1.69 9.85L27 76.11a1.5 1.5 0 0 0-1.4 0l-8.84 4.65 1.69-9.85a1.5 1.5 0 0 0-.45-1.34l-7.27-7 10-1.44a1.5 1.5 0 0 0 1.13-.82l4.42-9 4.42 9a1.5 1.5 0 0 0 1.13.82l9.89 1.44Zm48.68 0a1.5 1.5 0 0 0-.42 1.31l1.69 9.85-8.84-4.65a1.5 1.5 0 0 0-1.4 0l-8.84 4.65 1.69-9.85a1.5 1.5 0 0 0-.43-1.33l-7.16-7 9.89-1.44a1.5 1.5 0 0 0 1.13-.82l4.42-9 4.42 9a1.5 1.5 0 0 0 1.13.82l9.75 1.39Z"/>
</svg>
